<mxfile host="app.diagrams.net" agent="Mozilla/5.0 (Macintosh; Intel Mac OS X 10_15_7) AppleWebKit/537.36 (KHTML, like Gecko) Chrome/131.0.0.0 Safari/537.36" version="24.8.6">
  <diagram name="Page-1" id="R5P-dOEBfYv4ewYW2GcN">
    <mxGraphModel dx="2685" dy="1400" grid="0" gridSize="10" guides="1" tooltips="1" connect="1" arrows="1" fold="1" page="0" pageScale="1" pageWidth="827" pageHeight="1169" math="0" shadow="0">
      <root>
        <mxCell id="0" />
        <mxCell id="1" parent="0" />
        <mxCell id="g8IAPwSgBI2luNSc-yWi-34" value="VPC" style="points=[[0,0],[0.25,0],[0.5,0],[0.75,0],[1,0],[1,0.25],[1,0.5],[1,0.75],[1,1],[0.75,1],[0.5,1],[0.25,1],[0,1],[0,0.75],[0,0.5],[0,0.25]];outlineConnect=0;gradientColor=none;html=1;whiteSpace=wrap;fontSize=12;fontStyle=0;container=1;pointerEvents=0;collapsible=0;recursiveResize=0;shape=mxgraph.aws4.group;grIcon=mxgraph.aws4.group_vpc2;strokeColor=#8C4FFF;fillColor=none;verticalAlign=top;align=left;spacingLeft=30;fontColor=#AAB7B8;dashed=0;" vertex="1" parent="1">
          <mxGeometry x="-317" y="-57" width="1583" height="523" as="geometry" />
        </mxCell>
        <mxCell id="g8IAPwSgBI2luNSc-yWi-36" value="Availability zone" style="sketch=0;outlineConnect=0;gradientColor=none;html=1;whiteSpace=wrap;fontSize=12;fontStyle=0;shape=mxgraph.aws4.group;grIcon=mxgraph.aws4.group_availability_zone;strokeColor=#545B64;fillColor=none;verticalAlign=top;align=left;spacingLeft=30;fontColor=#545B64;dashed=1;" vertex="1" parent="1">
          <mxGeometry x="-425" y="-7" width="1656" height="426" as="geometry" />
        </mxCell>
        <mxCell id="g8IAPwSgBI2luNSc-yWi-6" value="SNS - ReservationTopic" style="sketch=0;points=[[0,0,0],[0.25,0,0],[0.5,0,0],[0.75,0,0],[1,0,0],[0,1,0],[0.25,1,0],[0.5,1,0],[0.75,1,0],[1,1,0],[0,0.25,0],[0,0.5,0],[0,0.75,0],[1,0.25,0],[1,0.5,0],[1,0.75,0]];outlineConnect=0;fontColor=#232F3E;fillColor=#E7157B;strokeColor=#ffffff;dashed=0;verticalLabelPosition=bottom;verticalAlign=top;align=center;html=1;fontSize=12;fontStyle=0;aspect=fixed;shape=mxgraph.aws4.resourceIcon;resIcon=mxgraph.aws4.sns;" vertex="1" parent="1">
          <mxGeometry x="162" y="22" width="78" height="78" as="geometry" />
        </mxCell>
        <mxCell id="g8IAPwSgBI2luNSc-yWi-43" style="edgeStyle=orthogonalEdgeStyle;rounded=0;orthogonalLoop=1;jettySize=auto;html=1;" edge="1" parent="1" source="g8IAPwSgBI2luNSc-yWi-7" target="g8IAPwSgBI2luNSc-yWi-42">
          <mxGeometry relative="1" as="geometry" />
        </mxCell>
        <mxCell id="g8IAPwSgBI2luNSc-yWi-7" value="SQS&amp;nbsp;" style="sketch=0;points=[[0,0,0],[0.25,0,0],[0.5,0,0],[0.75,0,0],[1,0,0],[0,1,0],[0.25,1,0],[0.5,1,0],[0.75,1,0],[1,1,0],[0,0.25,0],[0,0.5,0],[0,0.75,0],[1,0.25,0],[1,0.5,0],[1,0.75,0]];outlineConnect=0;fontColor=#232F3E;fillColor=#E7157B;strokeColor=#ffffff;dashed=0;verticalLabelPosition=bottom;verticalAlign=top;align=center;html=1;fontSize=12;fontStyle=0;aspect=fixed;shape=mxgraph.aws4.resourceIcon;resIcon=mxgraph.aws4.sqs;" vertex="1" parent="1">
          <mxGeometry x="416" y="19" width="78" height="78" as="geometry" />
        </mxCell>
        <mxCell id="g8IAPwSgBI2luNSc-yWi-8" value="" style="sketch=0;aspect=fixed;pointerEvents=1;shadow=0;dashed=0;html=1;strokeColor=none;labelPosition=center;verticalLabelPosition=bottom;verticalAlign=top;align=center;fillColor=#00188D;shape=mxgraph.mscae.enterprise.filter" vertex="1" parent="1">
          <mxGeometry x="375" y="73" width="26.67" height="24" as="geometry" />
        </mxCell>
        <mxCell id="g8IAPwSgBI2luNSc-yWi-51" style="edgeStyle=orthogonalEdgeStyle;rounded=0;orthogonalLoop=1;jettySize=auto;html=1;" edge="1" parent="1" source="g8IAPwSgBI2luNSc-yWi-9" target="g8IAPwSgBI2luNSc-yWi-44">
          <mxGeometry relative="1" as="geometry" />
        </mxCell>
        <mxCell id="g8IAPwSgBI2luNSc-yWi-9" value="SQS - LoansChanged" style="sketch=0;points=[[0,0,0],[0.25,0,0],[0.5,0,0],[0.75,0,0],[1,0,0],[0,1,0],[0.25,1,0],[0.5,1,0],[0.75,1,0],[1,1,0],[0,0.25,0],[0,0.5,0],[0,0.75,0],[1,0.25,0],[1,0.5,0],[1,0.75,0]];outlineConnect=0;fontColor=#232F3E;fillColor=#E7157B;strokeColor=#ffffff;dashed=0;verticalLabelPosition=bottom;verticalAlign=top;align=center;html=1;fontSize=12;fontStyle=0;aspect=fixed;shape=mxgraph.aws4.resourceIcon;resIcon=mxgraph.aws4.sqs;" vertex="1" parent="1">
          <mxGeometry x="416" y="152" width="78" height="78" as="geometry" />
        </mxCell>
        <mxCell id="g8IAPwSgBI2luNSc-yWi-10" value="" style="sketch=0;aspect=fixed;pointerEvents=1;shadow=0;dashed=0;html=1;strokeColor=none;labelPosition=center;verticalLabelPosition=bottom;verticalAlign=top;align=center;fillColor=#00188D;shape=mxgraph.mscae.enterprise.filter" vertex="1" parent="1">
          <mxGeometry x="375" y="206" width="26.67" height="24" as="geometry" />
        </mxCell>
        <mxCell id="g8IAPwSgBI2luNSc-yWi-13" style="edgeStyle=orthogonalEdgeStyle;rounded=0;orthogonalLoop=1;jettySize=auto;html=1;entryX=0;entryY=0.5;entryDx=0;entryDy=0;entryPerimeter=0;" edge="1" parent="1" source="g8IAPwSgBI2luNSc-yWi-6" target="g8IAPwSgBI2luNSc-yWi-7">
          <mxGeometry relative="1" as="geometry" />
        </mxCell>
        <mxCell id="g8IAPwSgBI2luNSc-yWi-14" style="edgeStyle=orthogonalEdgeStyle;rounded=0;orthogonalLoop=1;jettySize=auto;html=1;entryX=0;entryY=0.5;entryDx=0;entryDy=0;entryPerimeter=0;" edge="1" parent="1" source="g8IAPwSgBI2luNSc-yWi-6" target="g8IAPwSgBI2luNSc-yWi-9">
          <mxGeometry relative="1" as="geometry" />
        </mxCell>
        <mxCell id="g8IAPwSgBI2luNSc-yWi-15" value="SQS - LoansChanged" style="sketch=0;points=[[0,0,0],[0.25,0,0],[0.5,0,0],[0.75,0,0],[1,0,0],[0,1,0],[0.25,1,0],[0.5,1,0],[0.75,1,0],[1,1,0],[0,0.25,0],[0,0.5,0],[0,0.75,0],[1,0.25,0],[1,0.5,0],[1,0.75,0]];outlineConnect=0;fontColor=#232F3E;fillColor=#E7157B;strokeColor=#ffffff;dashed=0;verticalLabelPosition=bottom;verticalAlign=top;align=center;html=1;fontSize=12;fontStyle=0;aspect=fixed;shape=mxgraph.aws4.resourceIcon;resIcon=mxgraph.aws4.sqs;" vertex="1" parent="1">
          <mxGeometry x="416" y="292" width="78" height="78" as="geometry" />
        </mxCell>
        <mxCell id="g8IAPwSgBI2luNSc-yWi-16" value="" style="sketch=0;aspect=fixed;pointerEvents=1;shadow=0;dashed=0;html=1;strokeColor=none;labelPosition=center;verticalLabelPosition=bottom;verticalAlign=top;align=center;fillColor=#00188D;shape=mxgraph.mscae.enterprise.filter" vertex="1" parent="1">
          <mxGeometry x="367" y="346" width="26.67" height="24" as="geometry" />
        </mxCell>
        <mxCell id="g8IAPwSgBI2luNSc-yWi-17" style="edgeStyle=orthogonalEdgeStyle;rounded=0;orthogonalLoop=1;jettySize=auto;html=1;entryX=0;entryY=0.5;entryDx=0;entryDy=0;entryPerimeter=0;" edge="1" parent="1" source="g8IAPwSgBI2luNSc-yWi-6" target="g8IAPwSgBI2luNSc-yWi-15">
          <mxGeometry relative="1" as="geometry" />
        </mxCell>
        <mxCell id="g8IAPwSgBI2luNSc-yWi-19" value="" style="sketch=0;points=[[0,0,0],[0.25,0,0],[0.5,0,0],[0.75,0,0],[1,0,0],[0,1,0],[0.25,1,0],[0.5,1,0],[0.75,1,0],[1,1,0],[0,0.25,0],[0,0.5,0],[0,0.75,0],[1,0.25,0],[1,0.5,0],[1,0.75,0]];outlineConnect=0;fontColor=#232F3E;fillColor=#8C4FFF;strokeColor=#ffffff;dashed=0;verticalLabelPosition=bottom;verticalAlign=top;align=center;html=1;fontSize=12;fontStyle=0;aspect=fixed;shape=mxgraph.aws4.resourceIcon;resIcon=mxgraph.aws4.api_gateway;" vertex="1" parent="1">
          <mxGeometry x="-159" y="22" width="78" height="78" as="geometry" />
        </mxCell>
        <mxCell id="g8IAPwSgBI2luNSc-yWi-23" style="edgeStyle=orthogonalEdgeStyle;rounded=0;orthogonalLoop=1;jettySize=auto;html=1;" edge="1" parent="1" source="g8IAPwSgBI2luNSc-yWi-21" target="g8IAPwSgBI2luNSc-yWi-6">
          <mxGeometry relative="1" as="geometry" />
        </mxCell>
        <mxCell id="g8IAPwSgBI2luNSc-yWi-21" value="" style="sketch=0;points=[[0,0,0],[0.25,0,0],[0.5,0,0],[0.75,0,0],[1,0,0],[0,1,0],[0.25,1,0],[0.5,1,0],[0.75,1,0],[1,1,0],[0,0.25,0],[0,0.5,0],[0,0.75,0],[1,0.25,0],[1,0.5,0],[1,0.75,0]];outlineConnect=0;fontColor=#232F3E;fillColor=#ED7100;strokeColor=#ffffff;dashed=0;verticalLabelPosition=bottom;verticalAlign=top;align=center;html=1;fontSize=12;fontStyle=0;aspect=fixed;shape=mxgraph.aws4.resourceIcon;resIcon=mxgraph.aws4.lambda;" vertex="1" parent="1">
          <mxGeometry x="-5" y="21" width="78" height="78" as="geometry" />
        </mxCell>
        <mxCell id="g8IAPwSgBI2luNSc-yWi-22" style="edgeStyle=orthogonalEdgeStyle;rounded=0;orthogonalLoop=1;jettySize=auto;html=1;entryX=0;entryY=0.5;entryDx=0;entryDy=0;entryPerimeter=0;" edge="1" parent="1" source="g8IAPwSgBI2luNSc-yWi-19" target="g8IAPwSgBI2luNSc-yWi-21">
          <mxGeometry relative="1" as="geometry" />
        </mxCell>
        <mxCell id="g8IAPwSgBI2luNSc-yWi-24" style="edgeStyle=orthogonalEdgeStyle;rounded=0;orthogonalLoop=1;jettySize=auto;html=1;entryX=0;entryY=0.5;entryDx=0;entryDy=0;entryPerimeter=0;" edge="1" parent="1" source="g8IAPwSgBI2luNSc-yWi-33" target="g8IAPwSgBI2luNSc-yWi-19">
          <mxGeometry relative="1" as="geometry">
            <mxPoint x="-214" y="60" as="sourcePoint" />
          </mxGeometry>
        </mxCell>
        <mxCell id="g8IAPwSgBI2luNSc-yWi-33" value="" style="sketch=0;outlineConnect=0;fontColor=#232F3E;gradientColor=none;fillColor=#8C4FFF;strokeColor=none;dashed=0;verticalLabelPosition=bottom;verticalAlign=top;align=center;html=1;fontSize=12;fontStyle=0;aspect=fixed;pointerEvents=1;shape=mxgraph.aws4.internet_gateway;" vertex="1" parent="1">
          <mxGeometry x="-358" y="22" width="78" height="78" as="geometry" />
        </mxCell>
        <mxCell id="g8IAPwSgBI2luNSc-yWi-39" value="AWS Cloud" style="points=[[0,0],[0.25,0],[0.5,0],[0.75,0],[1,0],[1,0.25],[1,0.5],[1,0.75],[1,1],[0.75,1],[0.5,1],[0.25,1],[0,1],[0,0.75],[0,0.5],[0,0.25]];outlineConnect=0;gradientColor=none;html=1;whiteSpace=wrap;fontSize=12;fontStyle=0;container=1;pointerEvents=0;collapsible=0;recursiveResize=0;shape=mxgraph.aws4.group;grIcon=mxgraph.aws4.group_aws_cloud;strokeColor=#232F3E;fillColor=none;verticalAlign=top;align=left;spacingLeft=30;fontColor=#232F3E;dashed=0;" vertex="1" parent="1">
          <mxGeometry x="-502" y="-105" width="1810" height="617" as="geometry" />
        </mxCell>
        <mxCell id="g8IAPwSgBI2luNSc-yWi-42" value="" style="sketch=0;outlineConnect=0;fontColor=#232F3E;gradientColor=none;fillColor=#E7157B;strokeColor=none;dashed=0;verticalLabelPosition=bottom;verticalAlign=top;align=center;html=1;fontSize=12;fontStyle=0;aspect=fixed;pointerEvents=1;shape=mxgraph.aws4.queue;" vertex="1" parent="g8IAPwSgBI2luNSc-yWi-39">
          <mxGeometry x="1099" y="141.5" width="78" height="47" as="geometry" />
        </mxCell>
        <mxCell id="g8IAPwSgBI2luNSc-yWi-49" value="" style="sketch=0;points=[[0,0,0],[0.25,0,0],[0.5,0,0],[0.75,0,0],[1,0,0],[0,1,0],[0.25,1,0],[0.5,1,0],[0.75,1,0],[1,1,0],[0,0.25,0],[0,0.5,0],[0,0.75,0],[1,0.25,0],[1,0.5,0],[1,0.75,0]];outlineConnect=0;fontColor=#232F3E;fillColor=#ED7100;strokeColor=#ffffff;dashed=0;verticalLabelPosition=bottom;verticalAlign=top;align=center;html=1;fontSize=12;fontStyle=0;aspect=fixed;shape=mxgraph.aws4.resourceIcon;resIcon=mxgraph.aws4.lambda;" vertex="1" parent="g8IAPwSgBI2luNSc-yWi-39">
          <mxGeometry x="1294" y="263.5" width="78" height="78" as="geometry" />
        </mxCell>
        <mxCell id="g8IAPwSgBI2luNSc-yWi-44" value="" style="sketch=0;outlineConnect=0;fontColor=#232F3E;gradientColor=none;fillColor=#E7157B;strokeColor=none;dashed=0;verticalLabelPosition=bottom;verticalAlign=top;align=center;html=1;fontSize=12;fontStyle=0;aspect=fixed;pointerEvents=1;shape=mxgraph.aws4.queue;" vertex="1" parent="g8IAPwSgBI2luNSc-yWi-39">
          <mxGeometry x="1099" y="272.5" width="78" height="47" as="geometry" />
        </mxCell>
        <mxCell id="g8IAPwSgBI2luNSc-yWi-50" style="edgeStyle=orthogonalEdgeStyle;rounded=0;orthogonalLoop=1;jettySize=auto;html=1;" edge="1" parent="g8IAPwSgBI2luNSc-yWi-39" source="g8IAPwSgBI2luNSc-yWi-49" target="g8IAPwSgBI2luNSc-yWi-44">
          <mxGeometry relative="1" as="geometry" />
        </mxCell>
        <mxCell id="g8IAPwSgBI2luNSc-yWi-41" style="edgeStyle=orthogonalEdgeStyle;rounded=0;orthogonalLoop=1;jettySize=auto;html=1;" edge="1" parent="1" source="g8IAPwSgBI2luNSc-yWi-40" target="g8IAPwSgBI2luNSc-yWi-33">
          <mxGeometry relative="1" as="geometry" />
        </mxCell>
        <mxCell id="g8IAPwSgBI2luNSc-yWi-40" value="" style="image;aspect=fixed;html=1;points=[];align=center;fontSize=12;image=img/lib/azure2/networking/DNS_Zones.svg;" vertex="1" parent="1">
          <mxGeometry x="-546" y="26" width="64" height="64" as="geometry" />
        </mxCell>
        <mxCell id="g8IAPwSgBI2luNSc-yWi-45" value="" style="sketch=0;outlineConnect=0;fontColor=#232F3E;gradientColor=none;fillColor=#E7157B;strokeColor=none;dashed=0;verticalLabelPosition=bottom;verticalAlign=top;align=center;html=1;fontSize=12;fontStyle=0;aspect=fixed;pointerEvents=1;shape=mxgraph.aws4.queue;" vertex="1" parent="1">
          <mxGeometry x="602" y="317" width="78" height="47" as="geometry" />
        </mxCell>
        <mxCell id="g8IAPwSgBI2luNSc-yWi-48" style="edgeStyle=orthogonalEdgeStyle;rounded=0;orthogonalLoop=1;jettySize=auto;html=1;" edge="1" parent="1" source="g8IAPwSgBI2luNSc-yWi-46" target="g8IAPwSgBI2luNSc-yWi-42">
          <mxGeometry relative="1" as="geometry" />
        </mxCell>
        <mxCell id="g8IAPwSgBI2luNSc-yWi-46" value="" style="sketch=0;points=[[0,0,0],[0.25,0,0],[0.5,0,0],[0.75,0,0],[1,0,0],[0,1,0],[0.25,1,0],[0.5,1,0],[0.75,1,0],[1,1,0],[0,0.25,0],[0,0.5,0],[0,0.75,0],[1,0.25,0],[1,0.5,0],[1,0.75,0]];outlineConnect=0;fontColor=#232F3E;fillColor=#ED7100;strokeColor=#ffffff;dashed=0;verticalLabelPosition=bottom;verticalAlign=top;align=center;html=1;fontSize=12;fontStyle=0;aspect=fixed;shape=mxgraph.aws4.resourceIcon;resIcon=mxgraph.aws4.lambda;" vertex="1" parent="1">
          <mxGeometry x="790" y="21" width="78" height="78" as="geometry" />
        </mxCell>
      </root>
    </mxGraphModel>
  </diagram>
</mxfile>
